<svg width="151" height="39" viewBox="0 0 151 39" fill="none" xmlns="http://www.w3.org/2000/svg">
<path d="M41.0316 27.4883V11.7923H45.2316C47.6316 11.7923 49.5036 12.4403 50.8476 13.7363C52.1916 15.0323 52.8636 16.9763 52.8636 19.5683C52.8636 22.1763 52.1996 24.1523 50.8716 25.4963C49.5436 26.8243 47.7116 27.4883 45.3756 27.4883H41.0316ZM43.8156 25.2323H45.0396C46.6236 25.2323 47.8476 24.7763 48.7116 23.8643C49.5756 22.9363 50.0076 21.5043 50.0076 19.5683C50.0076 17.6483 49.5756 16.2483 48.7116 15.3683C47.8476 14.4883 46.6236 14.0483 45.0396 14.0483H43.8156V25.2323ZM60.8316 27.7763C59.7436 27.7763 58.7596 27.5363 57.8796 27.0563C56.9996 26.5603 56.3036 25.8563 55.7916 24.9443C55.2796 24.0163 55.0236 22.9043 55.0236 21.6083C55.0236 20.3283 55.2796 19.2243 55.7916 18.2963C56.3196 17.3683 56.9996 16.6563 57.8316 16.1603C58.6636 15.6643 59.5356 15.4163 60.4476 15.4163C61.5196 15.4163 62.4156 15.6563 63.1356 16.1363C63.8556 16.6003 64.3996 17.2563 64.7676 18.1043C65.1356 18.9363 65.3196 19.9043 65.3196 21.0083C65.3196 21.5843 65.2796 22.0323 65.1996 22.3523H57.7116C57.8396 23.3923 58.2156 24.2003 58.8396 24.7763C59.4636 25.3523 60.2476 25.6403 61.1916 25.6403C61.7036 25.6403 62.1756 25.5683 62.6076 25.4243C63.0556 25.2643 63.4956 25.0483 63.9276 24.7763L64.8636 26.5043C64.3036 26.8723 63.6796 27.1763 62.9916 27.4163C62.3036 27.6563 61.5836 27.7763 60.8316 27.7763ZM57.6876 20.4803H62.9196C62.9196 19.5683 62.7196 18.8563 62.3196 18.3443C61.9196 17.8163 61.3196 17.5523 60.5196 17.5523C59.8316 17.5523 59.2156 17.8083 58.6716 18.3203C58.1436 18.8163 57.8156 19.5363 57.6876 20.4803ZM71.2436 27.7763C70.4436 27.7763 69.6436 27.6243 68.8436 27.3203C68.0436 27.0003 67.3556 26.6083 66.7796 26.1443L68.0756 24.3683C68.6036 24.7683 69.1316 25.0883 69.6596 25.3283C70.1876 25.5683 70.7476 25.6883 71.3396 25.6883C71.9796 25.6883 72.4516 25.5523 72.7556 25.2803C73.0596 25.0083 73.2116 24.6723 73.2116 24.2723C73.2116 23.9363 73.0836 23.6643 72.8276 23.4563C72.5876 23.2323 72.2756 23.0403 71.8916 22.8803C71.5076 22.7043 71.1076 22.5363 70.6916 22.3763C70.1796 22.1843 69.6676 21.9523 69.1556 21.6803C68.6596 21.3923 68.2516 21.0323 67.9316 20.6003C67.6116 20.1523 67.4516 19.6003 67.4516 18.9443C67.4516 17.9043 67.8356 17.0563 68.6036 16.4003C69.3716 15.7443 70.4116 15.4163 71.7236 15.4163C72.5556 15.4163 73.2996 15.5603 73.9556 15.8483C74.6116 16.1363 75.1796 16.4643 75.6596 16.8323L74.3876 18.5123C73.9716 18.2083 73.5476 17.9683 73.1156 17.7923C72.6996 17.6003 72.2596 17.5043 71.7956 17.5043C71.2036 17.5043 70.7636 17.6323 70.4756 17.8883C70.1876 18.1283 70.0436 18.4323 70.0436 18.8003C70.0436 19.2643 70.2836 19.6163 70.7636 19.8563C71.2436 20.0963 71.8036 20.3283 72.4436 20.5523C72.9876 20.7443 73.5156 20.9843 74.0276 21.2723C74.5396 21.5443 74.9636 21.9043 75.2996 22.3523C75.6516 22.8003 75.8276 23.3923 75.8276 24.1283C75.8276 25.1363 75.4356 26.0003 74.6516 26.7203C73.8676 27.4243 72.7316 27.7763 71.2436 27.7763ZM78.2916 27.4883V15.7043H81.0516V27.4883H78.2916ZM79.6836 13.6403C79.1876 13.6403 78.7876 13.4963 78.4836 13.2083C78.1796 12.9203 78.0276 12.5363 78.0276 12.0563C78.0276 11.5923 78.1796 11.2163 78.4836 10.9283C78.7876 10.6403 79.1876 10.4963 79.6836 10.4963C80.1796 10.4963 80.5796 10.6403 80.8836 10.9283C81.1876 11.2163 81.3396 11.5923 81.3396 12.0563C81.3396 12.5363 81.1876 12.9203 80.8836 13.2083C80.5796 13.4963 80.1796 13.6403 79.6836 13.6403ZM88.6768 32.6963C87.7488 32.6963 86.9088 32.5843 86.1568 32.3603C85.4208 32.1363 84.8368 31.7923 84.4048 31.3283C83.9888 30.8803 83.7808 30.3123 83.7808 29.6243C83.7808 28.6483 84.3408 27.8083 85.4608 27.1043V27.0083C85.1568 26.8163 84.9008 26.5603 84.6928 26.2403C84.5008 25.9203 84.4048 25.5203 84.4048 25.0403C84.4048 24.5763 84.5328 24.1603 84.7888 23.7923C85.0608 23.4083 85.3648 23.0963 85.7008 22.8563V22.7603C85.3008 22.4563 84.9408 22.0323 84.6208 21.4883C84.3168 20.9443 84.1648 20.3283 84.1648 19.6403C84.1648 18.7283 84.3808 17.9603 84.8128 17.3363C85.2448 16.7123 85.8128 16.2403 86.5168 15.9203C87.2368 15.5843 88.0048 15.4163 88.8208 15.4163C89.1408 15.4163 89.4448 15.4483 89.7328 15.5123C90.0368 15.5603 90.3088 15.6243 90.5488 15.7043H94.7728V17.7443H92.6128C92.8048 17.9683 92.9648 18.2563 93.0928 18.6083C93.2208 18.9443 93.2848 19.3203 93.2848 19.7363C93.2848 20.6003 93.0848 21.3363 92.6848 21.9443C92.2848 22.5363 91.7488 22.9843 91.0768 23.2883C90.4048 23.5923 89.6528 23.7443 88.8208 23.7443C88.5648 23.7443 88.3008 23.7203 88.0288 23.6723C87.7568 23.6243 87.4848 23.5443 87.2128 23.4323C87.0368 23.5923 86.8928 23.7523 86.7808 23.9123C86.6848 24.0723 86.6368 24.2883 86.6368 24.5603C86.6368 24.8963 86.7728 25.1603 87.0448 25.3523C87.3328 25.5443 87.8368 25.6403 88.5568 25.6403H90.6448C92.0688 25.6403 93.1408 25.8723 93.8608 26.3363C94.5968 26.7843 94.9648 27.5203 94.9648 28.5443C94.9648 29.3123 94.7088 30.0083 94.1968 30.6323C93.6848 31.2723 92.9568 31.7763 92.0128 32.1443C91.0688 32.5123 89.9568 32.6963 88.6768 32.6963ZM88.8208 22.0163C89.3808 22.0163 89.8608 21.8083 90.2608 21.3923C90.6608 20.9763 90.8608 20.3923 90.8608 19.6403C90.8608 18.9043 90.6608 18.3363 90.2608 17.9363C89.8768 17.5203 89.3968 17.3123 88.8208 17.3123C88.2448 17.3123 87.7568 17.5123 87.3568 17.9123C86.9568 18.3123 86.7568 18.8883 86.7568 19.6403C86.7568 20.3923 86.9568 20.9763 87.3568 21.3923C87.7568 21.8083 88.2448 22.0163 88.8208 22.0163ZM89.1088 30.8963C90.0528 30.8963 90.8208 30.7043 91.4128 30.3203C92.0048 29.9363 92.3008 29.4963 92.3008 29.0003C92.3008 28.5363 92.1168 28.2243 91.7488 28.0643C91.3968 27.9043 90.8848 27.8243 90.2128 27.8243H88.6048C87.9648 27.8243 87.4288 27.7683 86.9968 27.6563C86.3888 28.1203 86.0848 28.6403 86.0848 29.2163C86.0848 29.7443 86.3568 30.1523 86.9008 30.4403C87.4448 30.7443 88.1808 30.8963 89.1088 30.8963ZM97.0416 27.4883V15.7043H99.3216L99.5136 17.2883H99.6096C100.138 16.7763 100.714 16.3363 101.338 15.9683C101.962 15.6003 102.674 15.4163 103.474 15.4163C104.738 15.4163 105.658 15.8243 106.234 16.6403C106.81 17.4563 107.098 18.6083 107.098 20.0963V27.4883H104.338V20.4563C104.338 19.4803 104.194 18.7923 103.906 18.3923C103.618 17.9923 103.146 17.7923 102.49 17.7923C101.978 17.7923 101.522 17.9203 101.122 18.1763C100.738 18.4163 100.298 18.7763 99.8016 19.2563V27.4883H97.0416ZM113.927 19.1363L113.375 21.0563H117.383L116.831 19.1363C116.575 18.3043 116.327 17.4483 116.087 16.5683C115.863 15.6883 115.639 14.8163 115.415 13.9523H115.319C115.111 14.8323 114.887 15.7123 114.647 16.5923C114.423 17.4563 114.183 18.3043 113.927 19.1363ZM108.671 27.4883L113.783 11.7923H117.047L122.159 27.4883H119.231L118.007 23.2403H112.727L111.503 27.4883H108.671ZM123.854 32.1443V15.7043H126.134L126.326 16.9523H126.422C126.918 16.5363 127.47 16.1763 128.078 15.8723C128.702 15.5683 129.334 15.4163 129.974 15.4163C131.446 15.4163 132.582 15.9603 133.382 17.0483C134.198 18.1363 134.606 19.5923 134.606 21.4163C134.606 22.7603 134.366 23.9123 133.886 24.8723C133.406 25.8163 132.782 26.5363 132.014 27.0323C131.262 27.5283 130.446 27.7763 129.566 27.7763C129.054 27.7763 128.542 27.6643 128.03 27.4403C127.518 27.2003 127.022 26.8803 126.542 26.4803L126.614 28.4483V32.1443H123.854ZM128.99 25.4963C129.774 25.4963 130.43 25.1523 130.958 24.4643C131.486 23.7763 131.75 22.7683 131.75 21.4403C131.75 20.2563 131.55 19.3363 131.15 18.6803C130.75 18.0243 130.102 17.6963 129.206 17.6963C128.374 17.6963 127.51 18.1363 126.614 19.0163V24.5123C127.046 24.8643 127.462 25.1203 127.862 25.2803C128.262 25.4243 128.638 25.4963 128.99 25.4963ZM137.401 32.1443V15.7043H139.681L139.873 16.9523H139.969C140.465 16.5363 141.017 16.1763 141.625 15.8723C142.249 15.5683 142.881 15.4163 143.521 15.4163C144.993 15.4163 146.129 15.9603 146.929 17.0483C147.745 18.1363 148.153 19.5923 148.153 21.4163C148.153 22.7603 147.913 23.9123 147.433 24.8723C146.953 25.8163 146.329 26.5363 145.561 27.0323C144.809 27.5283 143.993 27.7763 143.113 27.7763C142.601 27.7763 142.089 27.6643 141.577 27.4403C141.065 27.2003 140.569 26.8803 140.089 26.4803L140.161 28.4483V32.1443H137.401ZM142.537 25.4963C143.321 25.4963 143.977 25.1523 144.505 24.4643C145.033 23.7763 145.297 22.7683 145.297 21.4403C145.297 20.2563 145.097 19.3363 144.697 18.6803C144.297 18.0243 143.649 17.6963 142.753 17.6963C141.921 17.6963 141.057 18.1363 140.161 19.0163V24.5123C140.593 24.8643 141.009 25.1203 141.409 25.2803C141.809 25.4243 142.185 25.4963 142.537 25.4963Z" fill="#676767"/>
<path d="M0.453125 30.4902L19.0729 0.854015L23.3066 3.51398L4.68687 33.1502L0.453125 30.4902Z" fill="#D7E2FB"/>
<path d="M4.68701 33.1504L23.3067 3.51417L27.5405 6.17413L8.92076 35.8104L4.68701 33.1504Z" fill="#B5C9F5"/>
<path d="M8.92041 35.8105L27.5401 6.17433L31.7739 8.83429L13.1542 38.4705L8.92041 35.8105Z" fill="#D7E2FB"/>
<circle cx="16.0396" cy="19.4902" r="13" fill="url(#paint0_linear_591_9)"/>
<path d="M12.2716 24.4893V14.0573H15.2156C16.2822 14.0573 17.2049 14.2386 17.9836 14.6013C18.7622 14.9639 19.3649 15.5293 19.7916 16.2973C20.2289 17.0546 20.4476 18.0306 20.4476 19.2253C20.4476 20.4199 20.2342 21.4066 19.8076 22.1853C19.3809 22.9639 18.7836 23.5453 18.0156 23.9293C17.2582 24.3026 16.3676 24.4893 15.3436 24.4893H12.2716ZM14.6236 22.5853H15.0716C15.6689 22.5853 16.1862 22.4786 16.6236 22.2653C17.0716 22.0519 17.4182 21.6999 17.6636 21.2093C17.9089 20.7186 18.0316 20.0573 18.0316 19.2253C18.0316 18.3933 17.9089 17.7426 17.6636 17.2733C17.4182 16.7933 17.0716 16.4573 16.6236 16.2653C16.1862 16.0626 15.6689 15.9613 15.0716 15.9613H14.6236V22.5853Z" fill="white"/>
<defs>
<linearGradient id="paint0_linear_591_9" x1="3.03955" y1="19.4902" x2="29.0396" y2="19.4902" gradientUnits="userSpaceOnUse">
<stop stop-color="#0A55E8"/>
<stop offset="1" stop-color="#126FF9"/>
</linearGradient>
</defs>
</svg>
