<svg width="150" height="36" viewBox="0 0 150 36" fill="none" xmlns="http://www.w3.org/2000/svg">
<g clip-path="url(#clip0_326_8)">
<path d="M132.542 16.204L129.39 20.9791L132.086 24.7658L138.038 16.204H132.542Z" fill="#11100A"/>
<path d="M47.9173 4.32727C46.5948 4.32727 45.6029 5.09726 45.0557 5.94195C44.5426 4.77548 43.4766 4.32727 42.2852 4.32727C41.0539 4.32727 40.0619 4.90764 39.3836 5.90748H39.3494V4.59159H36.8924L36.5618 16.2047C36.5618 16.2047 37.3656 15.2106 37.8501 14.9002C38.3917 14.5555 39.4634 14.251 39.4634 14.251L39.4919 8.67139C39.4919 6.76941 40.7403 6.43613 41.2534 6.43613C42.9065 6.43613 42.8324 7.73476 42.8324 8.86102V13.9867C45.5289 13.9694 45.335 13.9636 45.335 13.9234L45.4376 8.8955C45.4376 7.67156 45.7112 6.43038 47.182 6.43038C48.6699 6.43038 48.7782 7.50492 48.7782 8.79781V14.4923C48.7782 14.4923 49.5535 14.7969 50.1007 15.406C50.6936 16.0667 51.0698 16.3828 51.0698 16.3828L51.3834 7.79797C51.3834 5.28689 49.9354 4.32727 47.9173 4.32727Z" fill="#11100A"/>
<path d="M57.1311 4.32727C54.1554 4.32727 52.2287 6.35568 52.2287 9.45862C52.2287 12.5443 54.1554 14.5727 57.1311 14.5727C60.124 14.5727 62.0508 12.5443 62.0508 9.45862C62.0508 6.36143 60.124 4.32727 57.1311 4.32727ZM57.1311 12.5673C55.3697 12.5673 54.8395 11.0043 54.8395 9.46437C54.8395 7.9014 55.3697 6.34419 57.1311 6.34419C58.9098 6.34419 59.4456 7.90715 59.4456 9.46437C59.4456 11.0043 58.9098 12.5673 57.1311 12.5673Z" fill="#11100A"/>
<path d="M68.4576 4.32686C67.2833 4.32686 66.1089 4.78081 65.4647 5.7749H65.4305V0.884888H62.8253L63.0078 14.1758C64.2505 14.1471 64.8205 14.5493 65.2652 14.8252L65.3051 13.0668H65.3393C65.9094 14.1414 67.0666 14.5723 68.4576 14.5723C70.3501 14.5723 72.3852 13.0093 72.3852 9.44098C72.3852 5.88982 70.3444 4.32686 68.4576 4.32686ZM67.5568 12.5669C66.0177 12.5669 65.3336 11.0786 65.3336 9.46395C65.3336 7.82629 66.012 6.34377 67.5568 6.34377C69.096 6.34377 69.7801 7.83203 69.7801 9.46395C69.7744 11.0786 69.096 12.5669 67.5568 12.5669Z" fill="#11100A"/>
<path d="M76.0501 0.890991H73.445V3.09178H76.0501V0.890991Z" fill="#11100A"/>
<path d="M73.3259 14.4749H75.8684L76.0508 4.59143H73.4456L73.3259 14.4749Z" fill="#11100A"/>
<path d="M77.123 16.2046C77.123 16.2046 77.7501 15.3541 78.4113 14.9002C79.124 14.4118 79.8707 14.3141 79.8707 14.3141V0.890991H77.2655L77.123 16.2046Z" fill="#11100A"/>
<path d="M85.1363 4.32727C82.2518 4.32727 80.2909 6.5453 80.2909 9.45862C80.2909 12.4696 82.1436 14.5727 85.1363 14.5727C87.2855 14.5727 88.8417 13.5959 89.5772 11.3031H87.2855C87.1202 11.9065 86.2765 12.5616 85.2276 12.5616C83.7796 12.5616 82.9701 11.7916 82.896 10.0965H89.7425C89.9306 7.11417 88.3686 4.32727 85.1363 4.32727ZM82.9017 8.40707C82.9359 7.65432 83.4148 6.33844 85.068 6.33844C86.3335 6.33844 86.9036 7.05097 87.143 8.40707H82.9017Z" fill="#11100A"/>
<path d="M36.0321 29.5118C36.2431 34.3271 40.3076 35.9073 44.4804 35.9073C48.5849 35.9073 52.6836 34.3615 52.6836 29.5807C52.6836 26.2077 49.8674 25.1505 46.983 24.4839C44.1669 23.8173 41.385 23.5702 41.385 21.7774C41.385 20.3007 43.0211 20.088 44.1326 20.088C45.9056 20.088 47.3649 20.6166 47.5074 22.5474H52.1991C51.8171 18.0826 48.203 16.7495 44.2695 16.7495C40.4102 16.7495 36.4483 17.9447 36.4483 22.5819C36.4483 25.7825 39.2986 26.7996 42.1489 27.4316C45.6947 28.2074 47.7468 28.7303 47.7468 30.2416C47.7468 31.9999 45.9398 32.563 44.5146 32.563C42.565 32.563 40.758 31.6839 40.7238 29.5061H36.0321V29.5118Z" fill="#F10600"/>
<path d="M70.8676 27.5409C71.2154 21.9498 68.2624 16.7495 62.14 16.7495C56.6789 16.7495 52.962 20.8983 52.962 26.3457C52.962 31.9711 56.4737 35.9073 62.14 35.9073C66.2102 35.9073 69.1632 34.08 70.5541 29.7933H66.2102C65.8967 30.9196 64.3005 32.1493 62.3167 32.1493C59.5691 32.1493 58.0413 30.707 57.8988 27.5466H70.8676V27.5409ZM57.8988 24.3805C57.9671 22.9726 58.8736 20.5133 62.0032 20.5133C64.4032 20.5133 65.4806 21.8464 65.9309 24.3805H57.8988Z" fill="#F10600"/>
<path d="M72.0549 35.4131H76.9915V25.8917C76.9915 22.2026 78.1374 20.6914 80.8166 20.6914C83.114 20.6914 83.9805 22.1681 83.9805 25.1561V35.4189H88.9172V24.2368C88.9172 19.7375 87.5947 16.7495 82.3444 16.7495C80.2581 16.7495 78.1032 17.7321 76.8491 19.772H76.7464V17.2436H72.0549V35.4131Z" fill="#F10600"/>
<path d="M97.1936 11.7965H92.2569V17.2438L86.944 16.945C87.4057 16.7439 89.8285 20.3411 89.2698 20.5824H92.2626V31.3048C92.2626 34.9249 94.9076 35.6259 97.929 35.6259C98.9038 35.6259 99.9812 35.5915 100.813 35.4478V31.5461C100.295 31.6496 99.8045 31.684 99.2857 31.684C97.6154 31.684 97.1993 31.2646 97.1993 29.5752V20.5824H100.699V17.2438H97.1993V11.7965H97.1936Z" fill="#F10600"/>
<path d="M101.435 35.413H106.371V27.2247C106.371 24.0241 107.625 21.3924 111.24 21.3924C111.833 21.3924 111.918 21.4613 112.374 21.5704V17.439C112.061 17.3355 112.284 17.2608 111.936 17.2608C109.536 17.2608 107.101 18.841 106.201 21.128H106.133V17.2435H101.441V35.413H101.435Z" fill="#F10600"/>
<path d="M113.36 35.413H118.297L118.058 18.864L113.36 17.2435V35.413Z" fill="#F10600"/>
<path d="M130.525 25.6216L127.829 21.8348L124.779 17.2435H119.426L124.921 25.7249L118.411 35.3499H123.981L127.76 29.5806L131.54 35.3499H137.211L130.525 25.6216Z" fill="#F10600"/>
<path d="M118.058 11.7965H113.36V15.6234L118.058 17.2438V11.7965Z" fill="#F10600"/>
<path d="M29.5011 0H27.848V35.9884H29.5011V0Z" fill="black"/>
<path d="M2.86665 11.8607C3.52222 11.2574 4.2747 10.7574 5.11838 10.3609V5.77551C5.11838 5.02851 5.21529 4.46539 5.40342 4.08613C5.75115 3.42532 6.43522 3.09204 7.44993 3.09204C8.32212 3.09204 8.90927 3.42532 9.21141 4.08613C9.37672 4.45389 9.46223 5.04575 9.46223 5.86171V9.2807C9.90118 9.24622 10.3515 9.22898 10.819 9.22898C11.5943 9.22898 12.341 9.2692 13.0479 9.34965V5.86746C13.0479 5.25262 13.1448 4.72971 13.333 4.293C13.7092 3.4713 14.3876 3.05756 15.3681 3.05756C16.2175 3.05756 16.7989 3.37935 17.1182 4.01718C17.2835 4.35046 17.369 4.78143 17.369 5.30433V10.4931C17.8136 10.7001 18.2411 10.9298 18.6402 11.1827C19.6263 11.8147 20.4188 12.6595 21.0174 13.711L21.0401 5.39052C21.0401 4.49987 21.0002 3.82181 20.9147 3.36211C20.7836 2.66683 20.5213 2.07497 20.1394 1.59803C19.6663 1.01192 19.1361 0.598196 18.5547 0.362603C17.9732 0.127008 17.3803 0.012085 16.7817 0.012085C15.8811 0.012085 15.0659 0.20171 14.3305 0.580958C13.6407 0.960207 13.0593 1.55206 12.5918 2.35653C12.3239 1.68422 11.9363 1.13259 11.4176 0.707375C10.7734 0.247678 9.93538 0.012085 8.89218 0.012085C7.79197 0.012085 6.89697 0.282156 6.2072 0.816551C5.81385 1.1211 5.39771 1.62677 4.95877 2.33929V0.333872H1.50421V13.4007C1.88615 12.8606 2.3422 12.3434 2.86665 11.8607Z" fill="black"/>
<path d="M6.43027 27.3592C6.56708 28.497 6.85781 29.3073 7.30245 29.7841C8.09484 30.6403 9.55418 31.0656 11.6919 31.0656C12.946 31.0656 13.9437 30.8759 14.679 30.5025C15.4201 30.1289 15.7849 29.5658 15.7849 28.8188C15.7849 28.1005 15.4885 27.5547 14.8899 27.1811C14.297 26.8076 12.0796 26.164 8.24876 25.2504C5.48966 24.5608 3.54577 23.699 2.41705 22.6646C1.28834 21.6476 0.723976 20.1765 0.723976 18.2631C0.723976 16.0047 1.60756 14.0568 3.36905 12.4364C5.13053 10.8102 7.61599 10 10.814 10C13.8524 10 16.3265 10.6091 18.2362 11.8331C20.1516 13.0512 21.2461 15.1601 21.5311 18.1538H15.192C15.1008 17.3321 14.8729 16.6771 14.5023 16.2002C13.8011 15.3325 12.6097 14.8957 10.9281 14.8957C9.54279 14.8957 8.55658 15.1141 7.96943 15.5451C7.38227 15.9818 7.08583 16.4874 7.08583 17.0735C7.08583 17.8091 7.39937 18.3377 8.02643 18.671C8.65349 19.0158 10.8596 19.6076 14.6562 20.4466C17.1872 21.0442 19.0856 21.952 20.3454 23.1645C21.5939 24.3942 22.2152 25.9285 22.2152 27.7673C22.2152 30.1921 21.3202 32.1746 19.5245 33.7088C17.7289 35.243 14.9584 36.013 11.2073 36.013C7.38227 36.013 4.55477 35.2028 2.73629 33.5766C0.912094 31.9505 0 29.8818 0 27.365H6.43027V27.3592Z" fill="#F10600"/>
<path d="M142.164 21.1072C142.164 20.6436 142.277 20.221 142.5 19.8394C142.725 19.4578 143.027 19.154 143.405 18.9278C143.784 18.7017 144.202 18.5887 144.662 18.5887C145.06 18.5887 145.428 18.6749 145.764 18.8473C146.104 19.0197 146.384 19.2557 146.606 19.5553C146.828 19.8521 146.964 20.1884 147.018 20.5644H146C145.944 20.2733 145.788 20.0359 145.533 19.8521C145.278 19.6656 144.988 19.5723 144.662 19.5723C144.382 19.5723 144.127 19.6415 143.897 19.7801C143.667 19.9185 143.484 20.1037 143.346 20.3354C143.208 20.5673 143.14 20.8245 143.14 21.1072C143.14 21.3898 143.208 21.6469 143.346 21.8788C143.484 22.1105 143.667 22.2957 143.897 22.4342C144.127 22.5727 144.382 22.6419 144.662 22.6419C144.988 22.6419 145.262 22.55 145.487 22.3663C145.714 22.1797 145.857 21.9409 145.916 21.6498H146.934C146.881 22.0258 146.75 22.3636 146.543 22.6632C146.335 22.9599 146.068 23.1945 145.744 23.3669C145.421 23.5393 145.06 23.6256 144.662 23.6256C144.202 23.6256 143.784 23.5125 143.405 23.2864C143.027 23.0603 142.725 22.7564 142.5 22.3749C142.277 21.9933 142.164 21.5706 142.164 21.1072ZM144.62 25.5844C144.009 25.5844 143.435 25.4685 142.896 25.2367C142.36 25.0049 141.888 24.6841 141.479 24.2742C141.071 23.8616 140.752 23.3853 140.519 22.8454C140.29 22.3055 140.176 21.7261 140.179 21.1072C140.182 20.4881 140.298 19.9087 140.528 19.3688C140.76 18.8289 141.081 18.3541 141.487 17.9442C141.893 17.5315 142.364 17.2093 142.9 16.9775C143.436 16.7457 144.009 16.6299 144.62 16.6299C145.235 16.6299 145.809 16.7457 146.345 16.9775C146.884 17.2093 147.354 17.5315 147.758 17.9442C148.164 18.3541 148.483 18.8289 148.713 19.3688C148.943 19.9087 149.059 20.4881 149.062 21.1072C149.065 21.7261 148.951 22.3055 148.721 22.8454C148.492 23.3853 148.173 23.8616 147.766 24.2742C147.36 24.6841 146.888 25.0049 146.349 25.2367C145.81 25.4685 145.235 25.5844 144.62 25.5844ZM144.62 24.6007C145.1 24.6007 145.55 24.5103 145.97 24.3294C146.391 24.1484 146.76 23.8983 147.077 23.5789C147.394 23.2595 147.642 22.8893 147.821 22.4681C148.001 22.0441 148.089 21.5918 148.087 21.1114C148.084 20.628 147.992 20.1743 147.813 19.7504C147.634 19.3264 147.386 18.9547 147.068 18.6353C146.751 18.3159 146.384 18.0658 145.966 17.8848C145.549 17.7039 145.1 17.6135 144.62 17.6135C144.144 17.6135 143.696 17.7039 143.279 17.8848C142.861 18.0658 142.494 18.3173 142.177 18.6395C141.859 18.959 141.61 19.3306 141.428 19.7546C141.248 20.1758 141.157 20.628 141.154 21.1114C141.152 21.589 141.24 22.0399 141.419 22.4638C141.599 22.885 141.847 23.2553 142.164 23.5747C142.484 23.8941 142.852 24.1457 143.27 24.3294C143.691 24.5103 144.141 24.6007 144.62 24.6007Z" fill="black"/>
</g>
<defs>
<clipPath id="clip0_326_8">
<rect width="150" height="36" fill="white"/>
</clipPath>
</defs>
</svg>
